<svg viewBox="0 0 400 260" xmlns="http://www.w3.org/2000/svg">
  <defs>
    <linearGradient id="bgB" x1="0%" y1="0%" x2="100%" y2="100%">
      <stop offset="0%" stop-color="#EAF3FF"/>
      <stop offset="100%" stop-color="#CFE4FB"/>
    </linearGradient>
    <linearGradient id="shieldB" x1="0%" y1="0%" x2="0%" y2="100%">
      <stop offset="0%" stop-color="#4FA3F7"/>
      <stop offset="100%" stop-color="#015FC9"/>
    </linearGradient>
  </defs>
  <rect width="400" height="260" fill="url(#bgB)"/>
  <circle cx="40" cy="45" r="18" fill="#FFB648" opacity="0.85"/>
  <circle cx="365" cy="70" r="12" fill="#015FC9" opacity="0.2"/>
  <circle cx="360" cy="205" r="16" fill="#015FC9" opacity="0.15"/>

  <ellipse cx="200" cy="228" rx="140" ry="12" fill="#0A1F44" opacity="0.08"/>

  <!-- shield -->
  <g transform="translate(200,132)">
    <path d="M0 -68 L58 -46 V22 C58 68 30 98 0 112 C-30 98 -58 68 -58 22 V-46 Z" fill="url(#shieldB)"/>
    <path d="M-28 4 L-8 24 L30 -22" stroke="#FFFFFF" stroke-width="9" fill="none" stroke-linecap="round" stroke-linejoin="round"/>
  </g>

  <!-- floating document left -->
  <g transform="translate(96,150) rotate(-10)">
    <rect x="-30" y="-38" width="60" height="76" rx="6" fill="#FFFFFF" stroke="#CFE4FB" stroke-width="2"/>
    <rect x="-20" y="-24" width="40" height="6" rx="3" fill="#015FC9"/>
    <rect x="-20" y="-10" width="32" height="5" rx="2.5" fill="#CFE4FB"/>
    <rect x="-20" y="2" width="32" height="5" rx="2.5" fill="#CFE4FB"/>
    <rect x="-20" y="14" width="22" height="5" rx="2.5" fill="#CFE4FB"/>
  </g>

  <!-- floating document right -->
  <g transform="translate(304,158) rotate(12)">
    <rect x="-28" y="-34" width="56" height="70" rx="6" fill="#FFFFFF" stroke="#CFE4FB" stroke-width="2"/>
    <rect x="-18" y="-20" width="36" height="6" rx="3" fill="#0A1F44"/>
    <rect x="-18" y="-6" width="28" height="5" rx="2.5" fill="#CFE4FB"/>
    <rect x="-18" y="6" width="28" height="5" rx="2.5" fill="#CFE4FB"/>
    <circle cx="10" cy="24" r="10" fill="#FFB648"/>
    <path d="M5 24 L9 28 L16 19" stroke="#FFFFFF" stroke-width="2.4" fill="none" stroke-linecap="round" stroke-linejoin="round"/>
  </g>
</svg>
