<?xml version="1.0" encoding="UTF-8"?>
<svg xmlns="http://www.w3.org/2000/svg" width="600" height="400" viewBox="0 0 600 400" role="img" aria-labelledby="title">
  <title id="title">Financial Planning and Insurance Advisory</title>
  <defs>
    <linearGradient id="bg" x1="0" y1="0" x2="1" y2="1">
      <stop offset="0%" stop-color="#F4F9FF"/>
      <stop offset="100%" stop-color="#DCEEFF"/>
    </linearGradient>
    <linearGradient id="blue" x1="0" y1="0" x2="0" y2="1">
      <stop offset="0%" stop-color="#4FA3F7"/>
      <stop offset="100%" stop-color="#015FC9"/>
    </linearGradient>
    <linearGradient id="gold" x1="0" y1="0" x2="1" y2="1">
      <stop offset="0%" stop-color="#FFD36A"/>
      <stop offset="100%" stop-color="#FFB648"/>
    </linearGradient>
    <filter id="shadow" x="-30%" y="-30%" width="160%" height="160%">
      <feDropShadow dx="0" dy="7" stdDeviation="8" flood-color="#0A1F44" flood-opacity=".13"/>
    </filter>
  </defs>
  <rect width="600" height="400" rx="22" fill="url(#bg)"/>
  <circle cx="535" cy="58" r="28" fill="#FFB648" opacity=".72"/>
  <circle cx="55" cy="62" r="18" fill="#015FC9" opacity=".12"/>
  <circle cx="555" cy="335" r="25" fill="#3FAE6B" opacity=".13"/>
  
<ellipse cx="300" cy="350" rx="230" ry="15" fill="#0A1F44" opacity=".08"/>
<g transform="translate(300 190)" filter="url(#shadow)">
 <circle r="100" fill="#fff" stroke="#CFE4FB" stroke-width="4"/>
 <path d="M-65 45 V-10 H-42 V45 H-65 M-30 45 V-45 H-7 V45 H-30 M5 45 V-2 H28 V45 H5 M40 45 V-65 H63 V45 H40" fill="url(#blue)"/>
 <path d="M-65 -62 Q-10 -82 63 -92" fill="none" stroke="#FFB648" stroke-width="8" stroke-linecap="round"/>
 <path d="M48 -100 L63 -92 L52 -78" fill="none" stroke="#FFB648" stroke-width="8" stroke-linecap="round" stroke-linejoin="round"/>
</g>
<g transform="translate(115 245)" filter="url(#shadow)">
 <circle r="55" fill="#fff" stroke="#CFE4FB" stroke-width="3"/>
 <circle r="35" fill="#EAF3FF"/>
 <text x="0" y="12" text-anchor="middle" font-family="Arial" font-size="35" font-weight="700" fill="#015FC9">₹</text>
</g>
<g transform="translate(482 245)" filter="url(#shadow)">
 <circle r="55" fill="#fff" stroke="#CFE4FB" stroke-width="3"/>
 <path d="M0 -35 L9 -10 L35 0 L9 10 L0 35 L-9 10 L-35 0 L-9 -10Z" fill="url(#gold)"/>
 <circle r="13" fill="#fff" opacity=".9"/>
</g>
<path d="M115 318 H485" stroke="#CFE4FB" stroke-width="7" stroke-linecap="round"/>
<circle cx="160" cy="318" r="8" fill="#3FAE6B"/><circle cx="300" cy="318" r="8" fill="#015FC9"/><circle cx="440" cy="318" r="8" fill="#FFB648"/>

</svg>