<?xml version="1.0" encoding="UTF-8"?>
<svg xmlns="http://www.w3.org/2000/svg" width="600" height="400" viewBox="0 0 600 400" role="img" aria-labelledby="title">
  <title id="title">Other Business Services</title>
  <defs>
    <linearGradient id="bg" x1="0" y1="0" x2="1" y2="1">
      <stop offset="0%" stop-color="#F4F9FF"/>
      <stop offset="100%" stop-color="#DCEEFF"/>
    </linearGradient>
    <linearGradient id="blue" x1="0" y1="0" x2="0" y2="1">
      <stop offset="0%" stop-color="#4FA3F7"/>
      <stop offset="100%" stop-color="#015FC9"/>
    </linearGradient>
    <linearGradient id="gold" x1="0" y1="0" x2="1" y2="1">
      <stop offset="0%" stop-color="#FFD36A"/>
      <stop offset="100%" stop-color="#FFB648"/>
    </linearGradient>
    <filter id="shadow" x="-30%" y="-30%" width="160%" height="160%">
      <feDropShadow dx="0" dy="7" stdDeviation="8" flood-color="#0A1F44" flood-opacity=".13"/>
    </filter>
  </defs>
  <rect width="600" height="400" rx="22" fill="url(#bg)"/>
  <circle cx="535" cy="58" r="28" fill="#FFB648" opacity=".72"/>
  <circle cx="55" cy="62" r="18" fill="#015FC9" opacity=".12"/>
  <circle cx="555" cy="335" r="25" fill="#3FAE6B" opacity=".13"/>
  
<ellipse cx="300" cy="350" rx="230" ry="15" fill="#0A1F44" opacity=".08"/>
<g transform="translate(300 190)" filter="url(#shadow)">
 <circle r="92" fill="#fff" stroke="#CFE4FB" stroke-width="4"/>
 <circle r="58" fill="#EAF3FF"/>
 <path d="M0 -43 L12 -29 L31 -31 L34 -12 L50 -1 L39 15 L44 33 L26 39 L18 55 L0 47 L-18 55 L-26 39 L-44 33 L-39 15 L-50 -1 L-34 -12 L-31 -31 L-12 -29Z" fill="url(#blue)"/>
 <circle r="17" fill="#fff"/>
</g>
<g transform="translate(115 250)" filter="url(#shadow)">
 <rect x="-55" y="-45" width="110" height="80" rx="10" fill="#015FC9"/>
 <rect x="-35" y="-25" width="70" height="8" rx="4" fill="#fff" opacity=".9"/>
 <rect x="-35" y="-7" width="55" height="8" rx="4" fill="#CFE4FB"/>
 <rect x="-35" y="11" width="65" height="8" rx="4" fill="#CFE4FB"/>
</g>
<g transform="translate(485 250)" filter="url(#shadow)">
 <circle r="48" fill="#fff" stroke="#CFE4FB" stroke-width="3"/>
 <path d="M-23 2 H23 M0 -23 V23" stroke="#FFB648" stroke-width="10" stroke-linecap="round"/>
 <circle r="15" fill="#3FAE6B"/>
 <path d="M-7 0 L-2 6 L8 -7" fill="none" stroke="#fff" stroke-width="3" stroke-linecap="round"/>
</g>
<path d="M300 42 V18 M288 30 H312" stroke="#FFB648" stroke-width="5" stroke-linecap="round"/>

</svg>